<svg width="180" height="180" viewBox="0 0 180 180" fill="none" xmlns="http://www.w3.org/2000/svg">
<rect width="180" height="180" rx="20" fill="#5033C0"/>
<g clip-path="url(#clip0_227_51)">
<mask id="mask0_227_51" style="mask-type:luminance" maskUnits="userSpaceOnUse" x="26" y="24" width="128" height="133">
<path d="M154 24H26V157H154V24Z" fill="white"/>
</mask>
<g mask="url(#mask0_227_51)">
<mask id="mask1_227_51" style="mask-type:luminance" maskUnits="userSpaceOnUse" x="17" y="13" width="147" height="154">
<path d="M105.252 12.9991L17 116.477L75.5865 166.443L163.838 62.9653L105.252 12.9991Z" fill="white"/>
</mask>
<g mask="url(#mask1_227_51)">
<path d="M104.74 69.0757L71.645 107.88C71.2866 108.3 71.3367 108.931 71.757 109.29L74.8004 111.885C75.2206 112.244 75.8518 112.193 76.2102 111.773L109.305 72.9692C109.663 72.549 109.613 71.9178 109.193 71.5594L106.149 68.9638C105.729 68.6054 105.098 68.6555 104.74 69.0757Z" fill="white"/>
<path d="M42.1063 93.2039L38.8617 97.0082C37.0698 99.1092 37.3204 102.265 39.4215 104.057L85.0733 142.992C87.1744 144.784 90.3303 144.533 92.1222 142.432L95.3668 138.628C97.1587 136.527 96.9081 133.371 94.807 131.579L49.1552 92.6441C47.0541 90.8522 43.8982 91.1028 42.1063 93.2039Z" fill="white"/>
<path d="M39.3324 111.865L36.7368 114.909C35.6616 116.169 35.812 118.063 37.0726 119.138L70.5506 147.69C71.8113 148.765 73.7048 148.615 74.78 147.354L77.3756 144.311C78.4508 143.05 78.3004 141.157 77.0398 140.082L43.5617 111.53C42.3011 110.454 40.4076 110.605 39.3324 111.865Z" fill="white"/>
<path d="M37.6318 126.187L36.334 127.709C35.6172 128.549 35.7174 129.812 36.5579 130.528L60.1446 150.645C60.9851 151.361 62.2474 151.261 62.9642 150.421L64.262 148.899C64.9788 148.058 64.8785 146.796 64.0381 146.079L40.4513 125.963C39.6109 125.246 38.3485 125.347 37.6318 126.187Z" fill="white"/>
<path d="M118.746 31.0815L117.448 32.6033C116.731 33.4437 116.832 34.7061 117.672 35.4228L141.259 55.5391C142.099 56.2559 143.362 56.1556 144.078 55.3152L145.376 53.7935C146.093 52.953 145.993 51.6907 145.152 50.9739L121.566 30.8576C120.725 30.1409 119.463 30.2411 118.746 31.0815Z" fill="white"/>
<path d="M106.17 33.4982L103.575 36.5416C102.5 37.8023 102.65 39.6958 103.911 40.771L137.389 69.3231C138.649 70.3982 140.543 70.2479 141.618 68.9872L144.214 65.9438C145.289 64.6831 145.138 62.7896 143.878 61.7144L110.4 33.1623C109.139 32.0872 107.245 32.2375 106.17 33.4982Z" fill="white"/>
<path d="M88.828 38.4226L85.5834 42.2269C83.7915 44.328 84.0421 47.4839 86.1432 49.2758L131.795 88.2105C133.896 90.0024 137.052 89.7518 138.844 87.6508L142.088 83.8464C143.88 81.7454 143.63 78.5895 141.529 76.7976L95.8769 37.8629C93.7758 36.0709 90.6199 36.3215 88.828 38.4226Z" fill="white"/>
</g>
</g>
</g>
<defs>
<clipPath id="clip0_227_51">
<rect x="26" y="24" width="128" height="133" rx="10" fill="white"/>
</clipPath>
</defs>
</svg>
