<svg width="180" height="180" viewBox="0 0 180 180" fill="none" xmlns="http://www.w3.org/2000/svg">
<rect width="180" height="180" rx="20" fill="#5033C0"/>
<g clip-path="url(#clip0_227_51)">
<mask id="mask0_227_51" style="mask-type:luminance" maskUnits="userSpaceOnUse" x="16" y="14" width="148" height="153">
<path d="M164 14H16V167H164V14Z" fill="white"/>
</mask>
<g mask="url(#mask0_227_51)">
<mask id="mask1_227_51" style="mask-type:luminance" maskUnits="userSpaceOnUse" x="5" y="1" width="171" height="177">
<path d="M107.635 1.34482L5.59375 120.383L73.3344 177.863L175.376 58.8247L107.635 1.34482Z" fill="white"/>
</mask>
<g mask="url(#mask1_227_51)">
<path d="M107.042 65.8546L68.7767 110.494C68.3623 110.977 68.4202 111.703 68.9061 112.116L72.4251 115.102C72.911 115.514 73.6408 115.456 74.0552 114.973L112.321 70.3336C112.735 69.8502 112.677 69.1241 112.191 68.7118L108.672 65.7258C108.186 65.3136 107.457 65.3712 107.042 65.8546Z" fill="white"/>
<path d="M34.6222 93.6105L30.8707 97.9869C28.7988 100.404 29.0885 104.034 31.5179 106.096L84.3028 150.885C86.7322 152.947 90.3812 152.658 92.4531 150.241L96.2046 145.865C98.2765 143.448 97.9867 139.817 95.5574 137.756L42.7724 92.9666C40.3431 90.9052 36.6941 91.1935 34.6222 93.6105Z" fill="white"/>
<path d="M31.4152 115.078L28.414 118.579C27.1709 120.029 27.3447 122.208 28.8023 123.445L67.5113 156.29C68.9689 157.527 71.1583 157.354 72.4014 155.904L75.4027 152.403C76.6458 150.953 76.4719 148.774 75.0143 147.537L36.3054 114.692C34.8478 113.455 32.6584 113.628 31.4152 115.078Z" fill="white"/>
<path d="M29.4485 131.554L27.9479 133.304C27.1191 134.271 27.235 135.723 28.2068 136.548L55.479 159.689C56.4507 160.513 57.9103 160.398 58.7391 159.431L60.2397 157.681C61.0684 156.714 60.9525 155.262 59.9808 154.437L32.7086 131.296C31.7368 130.471 30.2772 130.587 29.4485 131.554Z" fill="white"/>
<path d="M123.238 22.1473L121.737 23.8979C120.908 24.8647 121.024 26.3169 121.996 27.1414L149.268 50.2827C150.24 51.1072 151.699 50.9919 152.528 50.0251L154.029 48.2746C154.858 47.3077 154.742 45.8556 153.77 45.031L126.498 21.8897C125.526 21.0652 124.066 21.1805 123.238 22.1473Z" fill="white"/>
<path d="M108.696 24.9277L105.695 28.4288C104.452 29.8791 104.626 32.0573 106.084 33.2942L144.793 66.1398C146.25 67.3767 148.44 67.2037 149.683 65.7535L152.684 62.2524C153.927 60.8021 153.753 58.6239 152.296 57.387L113.587 24.5414C112.129 23.3045 109.94 23.4775 108.696 24.9277Z" fill="white"/>
<path d="M88.6446 30.5929L84.8931 34.9693C82.8212 37.3863 83.111 41.0168 85.5403 43.0782L138.325 87.8677C140.755 89.9291 144.404 89.6408 146.476 87.2238L150.227 82.8474C152.299 80.4304 152.009 76.7999 149.58 74.7385L96.7949 29.949C94.3655 27.8876 90.7165 28.1759 88.6446 30.5929Z" fill="white"/>
</g>
</g>
</g>
<defs>
<clipPath id="clip0_227_51">
<rect x="16" y="14" width="148" height="153" rx="10" fill="white"/>
</clipPath>
</defs>
</svg>
